<svg
   xmlns:dc="http://purl.org/dc/elements/1.1/"
   xmlns:cc="http://creativecommons.org/ns#"
   xmlns:rdf="http://www.w3.org/1999/02/22-rdf-syntax-ns#"
   xmlns:svg="http://www.w3.org/2000/svg"
   xmlns="http://www.w3.org/2000/svg"
   version="1.1"
   id="svg2"
   height="38.181"
   width="132.238">
  <metadata
     id="metadata12">
    <rdf:RDF>
      <cc:Work
         rdf:about="">
        <dc:format>image/svg+xml</dc:format>
        <dc:type
           rdf:resource="http://purl.org/dc/dcmitype/StillImage" />
        <dc:title></dc:title>
      </cc:Work>
    </rdf:RDF>
  </metadata>
  <defs
     id="defs10" />
  <path
     style="stroke:#000000;stroke-width:0.67205715;stroke-linecap:round"
     id="path4"
     d="m 26.337029,0.51702877 79.826061,0 0,37.32794223 -79.826061,0 z" />
  <path
     id="path6"
     d="m 44.730114,15.879886 -6.655428,0 0,-11.4456001 0.690514,0 0,10.7561711 5.964914,0 z m 7.9268,-6.9920001 0,0.6905143 -5.489371,0 0,5.6120568 5.934514,0 0,0.689429 -6.623943,0 0,-11.4456001 6.655429,0 0,0.6894286 -5.966,0 0,3.7652571 z m 8.877886,6.9920001 -6.654343,0 0,-11.4456001 0.689429,0 0,10.7561711 5.964914,0 z m 3.257143,-4.238629 4.616457,0 -2.314743,-5.5588568 z m 4.893314,0.689429 -5.222286,0 -1.457028,3.550285 -0.736114,0 4.801028,-11.5845708 4.814057,11.5823998 -0.736114,0 z m 3.747886,3.5492 0,-11.5845715 9.630286,10.0363425 0,-9.8973711 0.680742,0 0,11.5758851 -9.620514,-10.0189708 0,9.8875998 z m 13.570343,-0.689429 1.610114,0 q 1.402743,0 2.575314,-0.660114 1.181257,-0.659029 1.863086,-1.8164 0.689429,-1.157372 0.689429,-2.544914 0,-1.4038288 -0.689429,-2.5601145 Q 92.370171,6.4417716 91.188914,5.7827431 90.016343,5.1237145 88.6136,5.1237145 l -1.610114,0 z m -0.690515,0.689429 0,-11.4456001 2.300629,0 q 1.180171,0 2.253943,0.4451429 1.072686,0.4440571 1.855486,1.2105714 0.781714,0.7589143 1.242057,1.824 0.459257,1.0661714 0.459257,2.2550288 0,1.578628 -0.781714,2.897771 -0.781715,1.311543 -2.117143,2.062857 -1.333257,0.750229 -2.911886,0.750229 z m -48.238285,0.960857 1.137828,0 5.128915,8.137428 5.139771,-8.137428 1.125886,0 -5.778172,9.176457 0,6.978971 -0.964114,0 0,-6.978971 z m 18.289943,0.508114 q 1.515657,-0.649257 3.181142,-0.649257 1.666572,0 3.181143,0.649257 1.526515,0.649257 2.618743,1.753429 1.105257,1.103085 1.753429,2.628514 0.649257,1.526514 0.649257,3.203943 0,1.677428 -0.649257,3.202857 -0.648172,1.515657 -1.753429,2.618743 -1.092228,1.104171 -2.618743,1.753428 -1.514571,0.650343 -3.181143,0.650343 -1.665485,0 -3.181142,-0.650343 -1.515658,-0.649257 -2.608972,-1.753428 -1.092228,-1.103086 -1.741486,-2.617657 -0.649257,-1.526515 -0.649257,-3.203943 0,-1.677429 0.649257,-3.202857 0.649258,-1.526515 1.742572,-2.6296 1.092228,-1.104172 2.607886,-1.753429 z m -4.0356,7.585886 q 0,1.472228 0.563485,2.814171 0.573257,1.341943 1.536286,2.315829 0.961943,0.973886 2.303886,1.558 1.341943,0.573257 2.814171,0.573257 1.483086,0 2.825029,-0.573257 1.341943,-0.584114 2.304971,-1.558 0.961943,-0.973886 1.536286,-2.315829 0.573257,-1.341943 0.573257,-2.814171 0,-1.980343 -0.963029,-3.645829 -0.963028,-1.678514 -2.640457,-2.6524 -1.665485,-0.973885 -3.636057,-0.973885 -1.969486,0 -3.636057,0.973885 -1.655714,0.973886 -2.618743,2.651315 -0.963028,1.666571 -0.963028,3.646914 z m 18.5592,8.062514 0,-16.156514 5.735828,0 q 1.741486,0 2.954229,1.265943 1.211657,1.255085 1.211657,3.050857 0,1.526514 -0.952172,2.716457 -0.9424,1.179086 -2.359257,1.472229 l 4.1876,7.651028 -1.093314,0 -4.155029,-7.586971 -4.556742,0 0,7.585885 z m 0.973885,-8.548914 4.794515,0 q 1.287657,0 2.207257,-0.964114 0.930457,-0.961943 0.930457,-2.3256 0,-1.385372 -0.930457,-2.359258 -0.930457,-0.984742 -2.239829,-0.984742 l -4.763028,0 z m 12.054686,-7.6076 0.974971,0 0,6.860628 7.499029,-6.861714 1.450514,0 -6.536,5.962743 7.120115,10.194857 -1.256172,0 -6.536,-9.567314 -1.741486,1.590571 0,7.975657 -0.974971,0 z"
     style="font-weight:400;line-height:125%;font-family:Sawasdee;-inkscape-font-specification:Sawasdee;letter-spacing:0;word-spacing:0;fill:#ffffff"
     font-weight="400"
     letter-spacing="0"
     word-spacing="0" />
</svg>
